<svg width="30" height="28" fill="none" xmlns="http://www.w3.org/2000/svg"><path d="M29.236 1.003a2.24 2.24 0 00-2.258-.37L1.41 10.583c-.448.17-.828.48-1.08.884a2.15 2.15 0 00-.319 1.353c.042.473.237.92.557 1.274.32.354.746.596 1.216.689l6.496 1.276v8.043c0 .435.13.86.375 1.222a2.212 2.212 0 001.842.973 2.206 2.206 0 001.565-.645l3.601-3.554 5.444 4.748a2.223 2.223 0 002.147.44c.365-.115.694-.322.954-.601.26-.28.442-.621.528-.991l5.208-22.536a2.178 2.178 0 00-.707-2.155zM9.124 13.987l-6.897-1.36 19.336-7.534-12.439 8.894zm1.372 10.115v-6.506l3.49 3.047-3.49 3.459zM22.574 25.2L11.16 15.25 27.602 3.486 22.574 25.2z" fill="#2E48A8"/></svg>