<svg width="52" height="66" fill="none" xmlns="http://www.w3.org/2000/svg"><path d="M20.855 19.8c-2.083 0-4.081.84-5.554 2.336A8.039 8.039 0 0013 27.776C13 30.657 15.304 33 18.145 33h15.71C36.693 33 39 30.66 39 27.776a8.039 8.039 0 00-2.3-5.64 7.795 7.795 0 00-5.555-2.336h-10.29zm-2.98 7.976c0-1.673 1.332-3.026 2.98-3.026h10.29c1.647 0 2.98 1.353 2.98 3.026a.276.276 0 01-.079.194.268.268 0 01-.19.08H18.144a.268.268 0 01-.191-.08.276.276 0 01-.079-.194zM26 0c-3.049 0-5.987 1.16-8.235 3.252a12.447 12.447 0 00-3.907 8.047A26.167 26.167 0 003.73 21.017 26.704 26.704 0 000 34.65v20.625c0 1.408.273 2.803.804 4.104a10.737 10.737 0 002.29 3.48c.98.996 2.145 1.786 3.426 2.325 1.282.539 2.655.816 4.043.816h30.874c1.388 0 2.761-.277 4.043-.816a10.553 10.553 0 003.426-2.325 10.738 10.738 0 002.29-3.48c.53-1.3.804-2.696.804-4.104V34.65a26.704 26.704 0 00-3.73-13.633A26.167 26.167 0 0038.142 11.3a12.447 12.447 0 00-3.907-8.047A12.086 12.086 0 0026 0zm21.125 39.6H4.875v-4.95c0-5.689 2.226-11.145 6.187-15.167C15.024 15.46 20.397 13.2 26 13.2s10.976 2.26 14.938 6.283c3.961 4.022 6.187 9.478 6.187 15.167v4.95zM13 50.325c0 .656.257 1.286.714 1.75a2.42 2.42 0 001.723.725 2.42 2.42 0 001.724-.725 2.495 2.495 0 00.714-1.75v-5.069h29.25v10.019c0 1.532-.6 3-1.666 4.084a5.644 5.644 0 01-4.022 1.691H10.564a5.644 5.644 0 01-4.022-1.691 5.82 5.82 0 01-1.666-4.084V45.256H13v5.069zM26 8.25a25.82 25.82 0 00-6.565.848 7.387 7.387 0 012.697-3.03A7.23 7.23 0 0126 4.942a7.23 7.23 0 013.868 1.124 7.387 7.387 0 012.697 3.031A25.67 25.67 0 0026 8.25z" fill="#2E48A8"/></svg>