<svg width="109" height="27" fill="none" xmlns="http://www.w3.org/2000/svg"><path d="M9.708 14.912H4.452V26H.924V.8h3.528v10.944H9.78L17.7.8h3.852l-9 12.204L21.984 26H17.88L9.708 14.912zM78.741.8V26h-3.528V3.932H60.597V26h-3.564V.8h21.708z" fill="#2E48A8"/><path d="M37.858 26.288c-2.544 0-4.836-.552-6.876-1.656-2.04-1.128-3.648-2.676-4.824-4.644-1.152-1.968-1.728-4.164-1.728-6.588 0-2.424.576-4.62 1.728-6.588 1.176-1.968 2.784-3.504 4.824-4.608 2.04-1.128 4.332-1.692 6.876-1.692 2.52 0 4.8.564 6.84 1.692 2.04 1.104 3.636 2.64 4.788 4.608 1.152 1.944 1.728 4.14 1.728 6.588 0 2.448-.576 4.656-1.728 6.624-1.152 1.944-2.748 3.48-4.788 4.608-2.04 1.104-4.32 1.656-6.84 1.656zm0-3.204c1.848 0 3.504-.42 4.968-1.26a9.115 9.115 0 003.492-3.456c.864-1.488 1.296-3.144 1.296-4.968 0-1.824-.432-3.468-1.296-4.932a9.043 9.043 0 00-3.492-3.492c-1.464-.84-3.12-1.26-4.968-1.26-1.848 0-3.528.42-5.04 1.26a9.3 9.3 0 00-3.528 3.492c-.84 1.464-1.26 3.108-1.26 4.932 0 1.824.42 3.48 1.26 4.968a9.379 9.379 0 003.528 3.456c1.512.84 3.192 1.26 5.04 1.26zM108.308.8V26h-3.528V3.932H90.164V26H86.6V.8h21.708z" fill="#447EEC"/></svg>