<svg width="48" height="66" fill="none" xmlns="http://www.w3.org/2000/svg"><path d="M6.552 66c-1.736 0-3.401-.782-4.629-2.174-1.227-1.392-1.917-3.28-1.917-5.25L0 12.373c0-1.969.69-3.857 1.917-5.249C3.145 5.73 4.81 4.949 6.547 4.949l2.173-.004.003-2.47c0-.599.19-1.176.537-1.627.347-.45.825-.744 1.348-.825L10.905 0a2.04 2.04 0 011.434.61c.397.393.656.935.727 1.528l.02.336v2.471h8.729v-2.47c0-.6.192-1.178.54-1.629a2.12 2.12 0 011.351-.823L23.997 0c.528 0 1.038.215 1.436.608.398.394.657.937.729 1.53l.02.336v2.471h8.72l.003-2.47c0-.599.19-1.176.537-1.627.347-.45.825-.744 1.348-.825l.3-.023a2.04 2.04 0 011.434.61c.397.393.656.935.727 1.528l.02.336v2.471h2.18c1.736 0 3.401.783 4.629 2.175 1.227 1.392 1.917 3.28 1.917 5.249L48 48.659c0 .199-.02.396-.058.581l-.087.31-.131.317-.059.106a2.24 2.24 0 01-.305.438L34.256 65.274c-.077.087-.16.168-.248.241l.248-.24a2.252 2.252 0 01-.306.286l-.256.172-.337.155-.332.086-.154.02-.16.006H6.552zM41.448 9.898H6.518c-.575.008-1.122.273-1.525.736a2.654 2.654 0 00-.629 1.738l.006 46.202c0 1.369.978 2.474 2.182 2.474h23.974l.003-7.436c0-1.881.63-3.692 1.761-5.067 1.132-1.375 2.682-2.211 4.337-2.34l.448-.017h6.56V12.372c0-.656-.23-1.286-.638-1.75-.41-.464-.965-.724-1.543-.724h-.006zm-.902 41.24h-3.471a2.04 2.04 0 00-1.434.609 2.585 2.585 0 00-.728 1.528l-.02.337v3.939l5.653-6.414zm-29.641-4.95h11.632a2.05 2.05 0 011.489.667 2.62 2.62 0 01.687 1.64 2.702 2.702 0 01-.484 1.73c-.35.486-.848.804-1.396.89l-.296.022H10.905a2.05 2.05 0 01-1.49-.666 2.62 2.62 0 01-.687-1.64 2.702 2.702 0 01.485-1.73c.348-.486.847-.804 1.395-.89l.297-.023zm0-13.196h26.179a2.05 2.05 0 011.489.666 2.62 2.62 0 01.687 1.64 2.702 2.702 0 01-.484 1.73c-.35.486-.848.804-1.396.89l-.296.023h-26.18a2.05 2.05 0 01-1.488-.667 2.62 2.62 0 01-.688-1.64 2.702 2.702 0 01.485-1.73c.348-.486.847-.804 1.395-.89l.297-.022zm0-13.197h26.179a2.05 2.05 0 011.489.666 2.62 2.62 0 01.687 1.64 2.702 2.702 0 01-.484 1.73c-.35.486-.848.804-1.396.89l-.296.023h-26.18a2.05 2.05 0 01-1.488-.666 2.62 2.62 0 01-.688-1.64 2.702 2.702 0 01.485-1.73c.348-.486.847-.804 1.395-.89l.297-.023z" fill="#2E48A8"/></svg>