<svg width="30" height="30" fill="none" xmlns="http://www.w3.org/2000/svg"><path d="M25.628 4.347a14.806 14.806 0 00-4.843-3.227A14.917 14.917 0 0015.06 0C6.83 0 .12 6.647.12 14.803c0 2.614.694 5.154 1.99 7.394L0 29.875l7.915-2.061a15.053 15.053 0 007.145 1.807c8.231 0 14.94-6.647 14.94-14.803 0-3.958-1.553-7.678-4.372-10.471zM15.06 27.112c-2.23 0-4.417-.598-6.331-1.718l-.453-.27-4.703 1.226 1.251-4.541-.301-.463a12.26 12.26 0 01-1.9-6.543c0-6.781 5.578-12.308 12.422-12.308 3.317 0 6.437 1.284 8.774 3.615a12.218 12.218 0 012.698 3.993 12.14 12.14 0 01.935 4.715c.03 6.782-5.548 12.294-12.392 12.294zm6.814-9.202c-.377-.18-2.216-1.075-2.547-1.21-.347-.12-.588-.18-.845.18-.256.373-.964 1.21-1.175 1.448-.211.254-.438.284-.814.09-.377-.18-1.583-.583-3-1.837-1.116-.986-1.855-2.196-2.08-2.57-.212-.373-.031-.567.165-.761.166-.165.377-.434.558-.643.18-.209.256-.373.377-.612.12-.254.06-.463-.03-.642-.091-.18-.845-2.002-1.146-2.749-.302-.717-.618-.627-.845-.642H9.77c-.256 0-.648.09-.995.463-.332.373-1.297 1.27-1.297 3.092S8.82 15.102 9 15.34c.18.254 2.638 3.988 6.377 5.586.89.389 1.583.613 2.126.777.889.284 1.703.24 2.351.15.724-.105 2.216-.897 2.518-1.763.316-.866.316-1.598.21-1.763-.105-.164-.33-.239-.708-.418z" fill="#2E48A8"/></svg>